<svg width="46" height="38" viewBox="0 0 46 38" fill="none" xmlns="http://www.w3.org/2000/svg">
<path fill-rule="evenodd" clip-rule="evenodd" d="M31.7824 1.08716C30.5591 0.960628 27.6208 0.801405 25.8077 0.764191H24.6197C22.9504 0.817885 19.9887 0.817885 16.4345 2.91836C11.9648 5.82611 11.6956 11.0496 11.6956 11.6958C11.6956 13.4191 11.8032 15.8962 16.0573 20.1503C19.9348 24.082 19.073 23.2202 20.0961 24.4584C22.0889 26.7745 22.5195 28.1205 22.5195 29.7904C22.5195 34.9057 17.2423 37.9217 12.6647 36.8988V37.3292C17.2957 37.9756 22.9504 37.9217 25.2662 37.2752C31.082 35.8749 34.2593 31.5134 34.2593 26.074C34.2593 20.4199 30.0052 16.7577 28.8199 15.5733C26.5583 13.3115 25.6966 12.5036 24.9427 11.5882C23.9735 10.4034 23.2197 8.73412 23.2197 7.22615C23.2197 4.53345 25.4818 1.0332 31.8358 1.46382L31.7824 1.08716Z" fill="#CD5241"/>
<path fill-rule="evenodd" clip-rule="evenodd" d="M27.7976 37.5987C32.1056 37.3292 35.4446 37.1679 38.3523 33.5063C39.914 31.5137 40.9374 27.2591 40.9374 17.5122C40.9374 12.7732 40.2909 9.32666 40.1835 8.94974C40.0756 8.62677 39.537 6.79584 38.6218 5.39553C37.7601 4.15683 37.0062 3.24136 35.1216 2.43355C33.1825 1.62574 32.7521 1.67997 32.6442 1.67997L32.5902 1.19539C35.3906 1.51835 37.9756 2.11085 39.1604 2.59543C41.2069 3.5109 42.3916 4.53402 43.3611 6.20361C45.0301 9.43459 45.0841 15.5736 45.0841 17.5122C45.0841 23.4359 44.9227 31.6751 41.5299 34.4754C38.137 37.2752 33.452 37.7061 27.7979 37.7061L27.7976 37.5987ZM17.8888 0.817928C15.2501 0.979544 10.5111 1.19512 7.44148 5.17995C5.93351 7.1725 4.91039 11.3192 4.91039 21.0661C4.91039 25.8051 5.61054 29.2514 5.71846 29.6283C5.82612 29.9518 6.3107 31.8364 7.22617 33.1825C8.14163 34.4752 8.84179 35.4446 10.7264 36.1984C11.1806 36.3638 11.6295 36.5433 12.0725 36.7367V37.2215C9.75726 36.8986 7.71048 36.3598 6.74132 35.9828C4.64112 35.0676 3.51034 33.8829 2.54091 32.267C0.817633 28.9824 0.763672 23.0044 0.763672 21.0658C0.763672 15.0342 0.925287 7.11827 4.21023 4.1563C7.11798 1.57151 12.7727 0.763702 17.8885 0.763702L17.8888 0.817928Z" fill="#CD5241"/>
</svg>
