<svg width="46" height="41" viewBox="0 0 46 41" fill="none" xmlns="http://www.w3.org/2000/svg">
<path fill-rule="evenodd" clip-rule="evenodd" d="M8.46181 0.378601C6.10905 0.378601 4.20176 2.28125 4.20176 4.62828V8.53314L0.985547 18.1582C0.155817 20.6415 1.74669 23.1979 4.20176 23.6732V36.5009C4.20176 38.848 6.10905 40.7506 8.46181 40.7506H16.9819H19.1119H27.632H29.7621H38.2822C40.635 40.7506 42.5422 38.848 42.5422 36.5009V23.6732C44.9973 23.1979 46.5882 20.6415 45.7583 18.1582L42.5422 8.53314V4.62828C42.5422 2.28125 40.635 0.378601 38.2822 0.378601H8.46181ZM29.7621 36.5009H38.2822V23.7518H35.0871H23.372H11.6568H8.46181V36.5009H16.9819V30.1264C16.9819 26.6057 19.8427 23.7518 23.372 23.7518C26.9012 23.7518 29.7621 26.6057 29.7621 30.1264V36.5009ZM21.242 36.5009H25.502V30.1264C25.502 28.9528 24.5484 28.0015 23.372 28.0015C22.1956 28.0015 21.242 28.9528 21.242 30.1264V36.5009ZM5.02699 19.5022L7.86702 11.0028H11.2725L9.85244 19.5022H6.33178H5.02699ZM14.1713 19.5022L15.5913 11.0028H21.242V19.5022H14.1713ZM25.502 19.5022V11.0028H31.1527L32.5726 19.5022H25.502ZM36.8915 19.5022L35.4716 11.0028H38.8769L41.717 19.5022H40.4122H36.8915ZM38.2822 4.62828V6.75312H32.9571H23.372H13.7869H8.46181V4.62828H38.2822Z" fill="black"/>
</svg>
