<svg width="67" height="7" viewBox="0 0 67 7" fill="none" xmlns="http://www.w3.org/2000/svg">
<path fill-rule="evenodd" clip-rule="evenodd" d="M1.63791 0.565288H5.17282L6.23323 3.21282C5.77359 2.91639 5.29061 2.36565 5.05469 2.15393C4.80762 1.93157 4.46577 2.04792 4.46577 2.04792C3.64093 2.4715 4.23003 4.37772 5.05469 6.49565H1.63791C2.58053 4.58943 2.81627 3.00095 2.69831 2.5772C2.69831 2.5772 2.59499 2.13467 2.34496 2.04792C2.12647 1.97197 1.75604 2.15393 1.75604 2.15393C1.28455 2.4715 1.04864 2.78908 0.459717 3.21282L1.63791 0.565288ZM57.2543 6.49565H52.6586C52.6586 6.33686 53.3659 5.09774 53.3659 3.74211C53.3659 2.29142 52.6586 0.713583 52.6586 0.565288H57.2543L57.7256 2.4715C57.2897 2.46086 55.2039 1.35969 54.78 1.73019C54.002 2.39759 54.1318 3.20217 55.9582 2.78908V3.95398C55.8404 3.95398 54.697 3.55153 54.5442 3.84828C54.3909 4.1552 54.2381 5.42611 55.0154 5.33075C55.8404 5.22489 57.1484 4.39886 57.7256 4.37756L57.2543 6.49565ZM29.9174 6.49565H25.3219C25.3219 6.33686 26.029 5.09774 26.029 3.74211C26.029 2.29142 25.3219 0.713583 25.3219 0.565288H29.9174L30.3889 2.4715C29.953 2.46086 27.8674 1.35969 27.4429 1.73019C26.6656 2.39759 26.7951 3.20217 28.6213 2.78908V3.95398C28.5033 3.95398 27.3605 3.55153 27.2075 3.84828C27.0542 4.1552 26.9009 5.42611 27.6785 5.33075C28.5033 5.22489 29.8117 4.39886 30.3889 4.37756L29.9174 6.49565ZM42.4078 0.565288H46.6496C46.6496 0.649849 45.0001 1.2009 45.1177 3.74211C45.1767 5.20375 44.6817 5.8389 43.5861 6.38995C43.0437 6.65459 42.2546 6.63361 41.7007 6.28378C41.3827 6.08256 41.1348 5.73319 40.8759 5.33075C40.5222 4.80146 39.5796 4.58943 39.5796 4.58943C39.9331 4.46259 42.0541 3.42453 42.4078 3.31852C40.9935 4.48373 42.9141 5.08709 43.3502 4.58943C44.764 3.00095 43.1145 0.989031 42.4076 0.565288M65.3734 0.674904C65.609 0.886775 66.434 0.484329 66.6697 0.569203L65.3734 2.79252C65.4089 2.37958 65.1378 1.94566 65.0202 1.8398C64.9493 1.77623 64.7845 1.52192 64.195 1.52192C63.7476 1.52192 63.3939 1.59614 63.2526 1.8398C63.0174 2.26323 63.2526 2.8561 64.0778 3.00439C64.6667 3.11025 65.609 3.74571 65.609 4.80444C65.609 6.21268 64.7845 6.49847 63.4883 6.49847C62.0746 6.49847 62.3105 6.39277 61.4855 6.28707C61.2503 6.39277 60.7788 6.62547 60.4253 6.49847L61.3679 4.06328C61.5209 4.07393 61.6507 5.33388 62.4279 5.33388C62.7816 5.33388 63.3939 4.90012 63.0174 4.48687C62.4279 3.85141 62.3105 4.16898 61.6034 3.53384C61.3909 3.34326 61.1325 3.00455 61.0966 2.27373C61.0734 1.69167 61.5322 1.07735 62.0746 0.780605C63.2054 0.166757 65.2204 0.674904 65.3736 0.674904M59.365 2.79268L59.6006 1.94566C59.6006 1.94566 58.069 0.992633 59.1296 0.251318C59.3648 0.0925319 60.0721 0.0399165 60.543 0.56889C61.1793 1.28891 59.365 2.79268 59.365 2.79268ZM8.472 1.41262C8.472 1.41262 9.88593 1.30645 9.76832 2.36565C9.72093 2.81022 8.70774 3.21266 8.472 3.21266C8.472 3.21266 8.59013 2.77874 8.59013 2.36565C8.59013 1.99499 8.472 1.41262 8.472 1.41262ZM6.2334 0.565288H10.7109C11.1821 0.671302 11.5123 1.34888 11.4182 1.94206C11.3119 2.66208 10.3576 3.31868 10.3576 3.31868C10.3809 3.46697 10.6756 4.39886 11.0643 5.01302C11.5354 5.75433 12.1012 6.19922 12.1249 6.49549H9.76815C9.76815 6.31541 10.1217 5.75433 9.65054 4.69545C9.46201 4.25072 9.06109 3.95429 9.06109 3.95429C8.82535 3.6364 8.47217 3.84812 8.47217 3.84812C8.00104 4.05999 8.35439 5.86035 8.94348 6.49549H6.2334C6.8225 5.96621 7.17603 3.84812 7.17603 3.84812C7.41159 1.3066 6.2334 0.861564 6.2334 0.565288ZM15.4242 2.04792C15.8957 3.63656 16.4848 3.74226 16.2491 3.74226H14.7172C14.7172 3.74226 15.0473 3.2421 15.1887 2.89509C15.3185 2.57501 15.4242 2.04792 15.4242 2.04792ZM18.9595 6.49565H16.72C16.72 6.40013 16.4261 5.21409 16.0133 4.69529C15.7541 4.36707 15.2711 4.44145 15.0707 4.48342C14.1281 4.69529 14.5759 6.15694 14.5992 6.49565H12.3606C12.3606 6.30508 13.4447 3.80584 13.8922 2.4715C14.3638 1.09489 14.1281 0.702934 14.1281 0.565445H16.8382C16.8852 0.681794 16.7087 1.51847 17.0739 2.4715C17.7337 4.21862 18.9595 6.49565 18.9595 6.49565ZM21.5514 1.62433C21.5514 1.62433 23.2719 2.09035 23.3191 3.21282C23.3659 4.42016 22.2585 4.69545 21.9048 4.80146C21.9048 4.80146 21.9048 5.22473 21.5514 3.84843C21.3275 2.96916 21.5514 1.62433 21.5514 1.62433ZM19.5482 6.46402C19.5482 6.46402 20.0668 5.44725 20.2553 3.92234C20.491 2.01613 19.4541 1.20075 19.4303 0.533656H22.73C23.7904 0.851229 24.9567 2.09035 24.9686 3.3929C24.9921 4.9709 23.9082 6.35785 22.612 6.46402C21.8107 6.52728 20.3025 6.46402 19.5482 6.46402ZM33.4525 1.41262C33.4525 1.41262 34.8663 1.30645 34.7483 2.36565C34.7014 2.81022 33.6879 3.21266 33.4525 3.21266C33.4525 3.21266 33.5705 2.77874 33.5705 2.36565C33.5705 1.99499 33.4525 1.41262 33.4525 1.41262ZM31.2136 0.565288H35.6915C36.1626 0.671302 36.4926 1.34888 36.3982 1.94206C36.2919 2.66208 35.3378 3.31868 35.3378 3.31868C35.3613 3.46697 35.6561 4.39886 36.0448 5.01302C36.5159 5.75433 37.0817 6.19922 37.1049 6.49549H34.7483C34.7483 6.31541 35.102 5.75433 34.6311 4.69545C34.4418 4.25072 34.0416 3.95429 34.0416 3.95429C33.8059 3.6364 33.4527 3.84812 33.4527 3.84812C32.9812 4.05999 33.3346 5.86035 33.924 6.49549H31.2136C31.8025 5.96621 32.1564 3.84812 32.1564 3.84812C32.3921 1.3066 31.2136 0.861564 31.2136 0.565288ZM47.5925 3.6364C47.5967 3.30184 47.7474 2.98224 48.0121 2.74698C48.2768 2.51171 48.6341 2.37975 49.0064 2.37975C49.3787 2.37975 49.7359 2.51171 50.0006 2.74698C50.2653 2.98224 50.4161 3.30184 50.4202 3.6364C50.4161 3.97097 50.2653 4.29056 50.0006 4.52583C49.7359 4.7611 49.3787 4.89306 49.0064 4.89306C48.6341 4.89306 48.2768 4.7611 48.0121 4.52583C47.7474 4.29056 47.5967 3.97097 47.5925 3.6364ZM46.532 3.58332C46.532 1.91669 47.798 0.565288 49.3596 0.565288C50.9215 0.565288 52.188 1.91669 52.188 3.58332C52.188 5.25026 50.9213 6.60166 49.3596 6.60166C47.798 6.60166 46.5318 5.25026 46.5318 3.58332" fill="#D21242"/>
</svg>
