<svg width="46" height="48" viewBox="0 0 46 48" fill="none" xmlns="http://www.w3.org/2000/svg">
<path d="M21.3434 15.9969C22.4465 15.9969 23.3545 15.4234 23.4771 14.6824L24.5662 2.36559C24.5662 1.1482 23.1401 0.148788 21.3469 0.148788C19.5555 0.148788 18.1307 1.14819 18.1307 2.36581L19.2191 14.6824C19.3389 15.4231 20.2469 15.9969 21.3471 15.9969H21.3434ZM14.6866 19.844C15.2399 18.8899 15.1982 17.8175 14.615 17.3411L4.49127 10.2395C3.43869 9.62997 1.86047 10.3637 0.96478 11.9171C0.0660175 13.4685 0.225331 15.2012 1.27506 15.811L12.485 21.0304C13.1858 21.2902 14.1412 20.7902 14.6901 19.8367L14.6866 19.844ZM28.0061 19.8374C28.5586 20.7909 29.5092 21.291 30.2106 21.0311L41.4205 15.8117C42.4769 15.2021 42.6269 13.4692 41.7365 11.9177C40.8365 10.3659 39.2554 9.63063 38.2056 10.2402L28.0813 17.3417C27.5025 17.8175 27.4594 18.8907 28.0096 19.8447L28.0061 19.8374ZM21.3434 31.3824C22.4465 31.3824 23.3545 31.9511 23.4771 32.6928L24.5662 45.0078C24.5662 46.229 23.1401 47.2262 21.3469 47.2262C19.5555 47.2262 18.1307 46.229 18.1307 45.0078L19.2191 32.6928C19.3389 31.9511 20.2469 31.3824 21.3471 31.3824H21.3434ZM28.0061 27.5345C28.5586 26.5783 29.5092 26.0826 30.2106 26.3454L41.4205 31.5613C42.4769 32.1716 42.6269 33.906 41.7365 35.4587C40.8365 37.0055 39.2554 37.7428 38.2056 37.1341L28.0813 30.0391C27.5025 29.5597 27.4594 28.4857 28.0096 27.5325H28.0052M14.6866 27.5332C15.2399 28.4858 15.1982 29.5597 14.615 30.04L4.49127 37.1348C3.43869 37.7434 1.86047 37.0062 0.96478 35.4594C0.0660175 33.9067 0.225331 32.1722 1.27506 31.562L12.485 26.3461C13.1858 26.0833 14.1412 26.579 14.6901 27.5353H14.6866" fill="#FDBB30"/>
<path d="M44.2321 36.3495H44.3162C44.4279 36.3495 44.4995 36.3033 44.4995 36.2348C44.4995 36.1568 44.4323 36.1143 44.3285 36.1143C44.2929 36.1143 44.2565 36.1216 44.2323 36.1216V36.3514V36.3492L44.2321 36.3495ZM44.2191 36.9028H43.9227V35.937C43.9899 35.9238 44.1468 35.9003 44.3477 35.9003C44.5659 35.9003 44.6636 35.9311 44.7353 35.9794C44.7957 36.0216 44.8397 36.0937 44.8397 36.191C44.8397 36.2901 44.7485 36.3741 44.614 36.4108V36.4231C44.7236 36.4523 44.7834 36.5319 44.8148 36.6714C44.8447 36.8107 44.8632 36.8676 44.8819 36.9035H44.5461C44.5169 36.8676 44.4995 36.7821 44.4797 36.6969C44.4608 36.5991 44.4147 36.5501 44.3156 36.5501H44.2184L44.2191 36.9028ZM44.3417 35.6223C43.9161 35.6223 43.595 35.9691 43.595 36.4112C43.595 36.8419 43.917 37.1933 44.3534 37.1933C44.7915 37.2005 45.1135 36.8421 45.1135 36.4042C45.1135 35.9682 44.7915 35.6223 44.3483 35.6223H44.3417ZM44.3608 35.3602C44.9542 35.3602 45.4273 35.8273 45.4273 36.404C45.4273 36.9874 44.9542 37.4552 44.3527 37.4552C43.7513 37.4552 43.2722 36.9867 43.2722 36.4042C43.2722 35.8274 43.7519 35.3604 44.3527 35.3604H44.3593" fill="#FDBB30"/>
</svg>
