<svg width="47" height="47" viewBox="0 0 47 47" fill="none" xmlns="http://www.w3.org/2000/svg">
<g filter="url(#filter0_d_42_323)">
<circle cx="23.5" cy="19.5" r="19.5" fill="#6CC51D"/>
</g>
<path d="M23.5 28.5535C23.2025 28.5535 22.9158 28.4526 22.6923 28.2693C21.8483 27.578 21.0345 26.9284 20.3166 26.3553L20.3129 26.3523C18.2081 24.6722 16.3904 23.2213 15.1258 21.792C13.712 20.1941 13.0536 18.6791 13.0536 17.0241C13.0536 15.4161 13.6422 13.9326 14.711 12.8467C15.7925 11.748 17.2765 11.1428 18.8901 11.1428C20.0962 11.1428 21.2006 11.5 22.1728 12.2042C22.6635 12.5597 23.1082 12.9948 23.5 13.5023C23.892 12.9948 24.3365 12.5597 24.8273 12.2042C25.7995 11.5 26.904 11.1428 28.11 11.1428C29.7234 11.1428 31.2076 11.748 32.2891 12.8467C33.3579 13.9326 33.9464 15.4161 33.9464 17.0241C33.9464 18.6791 33.2881 20.1941 31.8744 21.7918C30.6097 23.2213 28.7922 24.6721 26.6877 26.352C25.9685 26.926 25.1534 27.5766 24.3075 28.2696C24.0842 28.4526 23.7973 28.5535 23.5 28.5535ZM18.8901 12.2892C17.6224 12.2892 16.4579 12.7631 15.6107 13.6237C14.7508 14.4972 14.2773 15.7048 14.2773 17.0241C14.2773 18.416 14.8296 19.661 16.068 21.0605C17.2649 22.4134 19.0452 23.8345 21.1066 25.48L21.1104 25.4829C21.8311 26.0582 22.648 26.7104 23.4982 27.4067C24.3536 26.709 25.1718 26.0558 25.8939 25.4797C27.9551 23.8342 29.7352 22.4134 30.9322 21.0605C32.1704 19.661 32.7227 18.416 32.7227 17.0241C32.7227 15.7048 32.2491 14.4972 31.3893 13.6237C30.5423 12.7631 29.3775 12.2892 28.11 12.2892C27.1813 12.2892 26.3287 12.5657 25.5759 13.111C24.9049 13.5971 24.4376 14.2116 24.1636 14.6416C24.0227 14.8627 23.7746 14.9947 23.5 14.9947C23.2253 14.9947 22.9773 14.8627 22.8364 14.6416C22.5626 14.2116 22.0952 13.5971 21.4241 13.111C20.6713 12.5657 19.8186 12.2892 18.8901 12.2892Z" fill="white"/>
<defs>
<filter id="filter0_d_42_323" x="0" y="0" width="47" height="47" filterUnits="userSpaceOnUse" color-interpolation-filters="sRGB">
<feFlood flood-opacity="0" result="BackgroundImageFix"/>
<feColorMatrix in="SourceAlpha" type="matrix" values="0 0 0 0 0 0 0 0 0 0 0 0 0 0 0 0 0 0 127 0" result="hardAlpha"/>
<feOffset dy="4"/>
<feGaussianBlur stdDeviation="2"/>
<feComposite in2="hardAlpha" operator="out"/>
<feColorMatrix type="matrix" values="0 0 0 0 0.423529 0 0 0 0 0.772549 0 0 0 0 0.113725 0 0 0 0.26 0"/>
<feBlend mode="normal" in2="BackgroundImageFix" result="effect1_dropShadow_42_323"/>
<feBlend mode="normal" in="SourceGraphic" in2="effect1_dropShadow_42_323" result="shape"/>
</filter>
</defs>
</svg>
