<svg width="47" height="48" viewBox="0 0 47 48" fill="none" xmlns="http://www.w3.org/2000/svg">
<g filter="url(#filter0_d_42_313)">
<circle cx="23.5" cy="19.6111" r="19.5" fill="#6CC51D"/>
</g>
<path d="M29.4904 28.2279H17.4661C16.5691 28.2279 15.8393 27.4981 15.8393 26.6011V18.0419C15.8393 17.7294 16.0926 17.4761 16.4051 17.4761C16.7177 17.4761 16.971 17.7294 16.971 18.0419V26.6011C16.971 26.8741 17.1931 27.0962 17.4661 27.0962H29.4904C29.7634 27.0962 29.9855 26.8741 29.9855 26.6011V18.0419C29.9855 17.7294 30.2388 17.4761 30.5514 17.4761C30.8639 17.4761 31.1172 17.7294 31.1172 18.0419V26.6011C31.1172 27.4981 30.3875 28.2279 29.4904 28.2279Z" fill="white"/>
<path d="M31.9877 20.0225C31.8429 20.0225 31.6981 19.9672 31.5876 19.8567L24.5503 12.8194C23.9712 12.2403 23.0289 12.2403 22.4497 12.8194L15.4124 19.8568C15.1914 20.0778 14.8331 20.0778 14.6122 19.8568C14.3912 19.6358 14.3912 19.2775 14.6122 19.0565L21.6495 12.0192C22.6699 10.9988 24.3302 10.9988 25.3505 12.0192L32.3878 19.0565C32.6088 19.2775 32.6088 19.6358 32.3878 19.8567C32.2774 19.9672 32.1326 20.0225 31.9877 20.0225Z" fill="white"/>
<path d="M25.8069 28.2281H21.2801C20.9676 28.2281 20.7143 27.9748 20.7143 27.6623V22.6403C20.7143 21.6653 21.5075 20.8721 22.4826 20.8721H24.6045C25.5795 20.8721 26.3728 21.6653 26.3728 22.6403V27.6623C26.3728 27.9748 26.1195 28.2281 25.8069 28.2281ZM21.846 27.0964H25.2411V22.6403C25.2411 22.2893 24.9555 22.0038 24.6045 22.0038H22.4826C22.1316 22.0038 21.846 22.2893 21.846 22.6403V27.0964Z" fill="white"/>
<defs>
<filter id="filter0_d_42_313" x="0" y="0.111084" width="47" height="47" filterUnits="userSpaceOnUse" color-interpolation-filters="sRGB">
<feFlood flood-opacity="0" result="BackgroundImageFix"/>
<feColorMatrix in="SourceAlpha" type="matrix" values="0 0 0 0 0 0 0 0 0 0 0 0 0 0 0 0 0 0 127 0" result="hardAlpha"/>
<feOffset dy="4"/>
<feGaussianBlur stdDeviation="2"/>
<feComposite in2="hardAlpha" operator="out"/>
<feColorMatrix type="matrix" values="0 0 0 0 0.423529 0 0 0 0 0.772549 0 0 0 0 0.113725 0 0 0 0.26 0"/>
<feBlend mode="normal" in2="BackgroundImageFix" result="effect1_dropShadow_42_313"/>
<feBlend mode="normal" in="SourceGraphic" in2="effect1_dropShadow_42_313" result="shape"/>
</filter>
</defs>
</svg>
