<svg width="20" height="17" viewBox="0 0 20 17" fill="none" xmlns="http://www.w3.org/2000/svg">
<path d="M18.3631 1.54993H7.15559C6.84746 0.650108 5.98186 0 4.96414 0C3.94642 0 3.08081 0.650108 2.77269 1.54993H1.02329C0.616908 1.54993 0.287445 1.87387 0.287445 2.27345C0.287445 2.67302 0.616908 2.99697 1.02329 2.99697H2.77274C3.08086 3.89679 3.94646 4.5469 4.96419 4.5469C5.98191 4.5469 6.84751 3.89679 7.15564 2.99697H18.3631C18.7695 2.99697 19.099 2.67302 19.099 2.27345C19.099 1.87387 18.7695 1.54993 18.3631 1.54993ZM4.96414 3.09985C4.5007 3.09985 4.12366 2.72912 4.12366 2.27345C4.12366 1.81777 4.5007 1.44704 4.96414 1.44704C5.42758 1.44704 5.80462 1.81777 5.80462 2.27345C5.80462 2.72912 5.42758 3.09985 4.96414 3.09985Z" fill="#868889"/>
<path d="M18.3631 7.74966H16.6136C16.3055 6.84985 15.4398 6.19974 14.4222 6.19974C13.4045 6.19974 12.5389 6.84985 12.2308 7.74966H1.02329C0.616908 7.74966 0.287445 8.07361 0.287445 8.47319C0.287445 8.87276 0.616908 9.19671 1.02329 9.19671H12.2308C12.5389 10.0965 13.4045 10.7466 14.4222 10.7466C15.4399 10.7466 16.3055 10.0965 16.6137 9.19671H18.3631C18.7695 9.19671 19.099 8.87276 19.099 8.47319C19.099 8.07361 18.7695 7.74966 18.3631 7.74966ZM14.4222 9.29959C13.9588 9.29959 13.5817 8.92886 13.5817 8.47319C13.5817 8.01751 13.9588 7.64678 14.4222 7.64678C14.8856 7.64678 15.2627 8.01751 15.2627 8.47319C15.2627 8.92886 14.8856 9.29959 14.4222 9.29959Z" fill="#868889"/>
<path d="M18.3631 13.9494H10.3083C10.0002 13.0496 9.13457 12.3995 8.11685 12.3995C7.09912 12.3995 6.23352 13.0496 5.9254 13.9494H1.02329C0.616908 13.9494 0.287445 14.2733 0.287445 14.6729C0.287445 15.0725 0.616908 15.3964 1.02329 15.3964H5.9254C6.23352 16.2963 7.09912 16.9464 8.11685 16.9464C9.13457 16.9464 10.0002 16.2963 10.3083 15.3964H18.3631C18.7695 15.3964 19.099 15.0725 19.099 14.6729C19.099 14.2733 18.7695 13.9494 18.3631 13.9494ZM8.11685 15.4994C7.65341 15.4994 7.27636 15.1286 7.27636 14.673C7.27636 14.2173 7.65341 13.8466 8.11685 13.8466C8.58028 13.8466 8.95733 14.2172 8.95733 14.6729C8.95733 15.1286 8.58028 15.4994 8.11685 15.4994Z" fill="#868889"/>
</svg>
