<svg width="68" height="100" viewBox="0 0 68 100" fill="none" xmlns="http://www.w3.org/2000/svg">
<mask id="path-1-outside-1_62_575" maskUnits="userSpaceOnUse" x="0" y="0" width="68" height="100" fill="black">
<rect fill="white" width="68" height="100"/>
<path d="M2 0H68V100H2V0Z"/>
</mask>
<path d="M4 100V0H0V100H4Z" fill="#BDBCBC" mask="url(#path-1-outside-1_62_575)"/>
<rect x="2" width="66" height="100" rx="5" fill="url(#paint0_linear_62_575)"/>
<path d="M48.9957 58.1528L47.7795 44.6123C47.7534 44.3117 47.4972 44.084 47.1975 44.084H44.6957C44.661 41.8252 42.7933 40 40.5 40C38.2067 40 36.339 41.8252 36.3043 44.084H33.8025C33.4985 44.084 33.2466 44.3117 33.2205 44.6123L32.0043 58.1528C32.0043 58.1699 32 58.1871 32 58.2043C32 59.746 33.429 61 35.188 61H45.812C47.571 61 49 59.746 49 58.2043C49 58.1871 49 58.1699 48.9957 58.1528ZM40.5 41.1595C42.1461 41.1595 43.4882 42.465 43.523 44.084H37.477C37.5118 42.465 38.8539 41.1595 40.5 41.1595ZM45.812 59.8405H35.188C34.0848 59.8405 33.1901 59.119 33.1727 58.2301L34.3367 45.2479H36.2999V47.0086C36.2999 47.3307 36.5606 47.5883 36.8863 47.5883C37.2121 47.5883 37.4727 47.3307 37.4727 47.0086V45.2479H43.523V47.0086C43.523 47.3307 43.7836 47.5883 44.1094 47.5883C44.4351 47.5883 44.6957 47.3307 44.6957 47.0086V45.2479H46.6589L47.8273 58.2301C47.8099 59.119 46.9108 59.8405 45.812 59.8405Z" fill="white"/>
<defs>
<linearGradient id="paint0_linear_62_575" x1="2" y1="0" x2="68.874" y2="1.23147" gradientUnits="userSpaceOnUse">
<stop stop-color="white"/>
<stop offset="1" stop-color="#6CC51D"/>
</linearGradient>
</defs>
</svg>
