<svg width="52" height="78" viewBox="0 0 52 78" fill="none" xmlns="http://www.w3.org/2000/svg">
<circle cx="26" cy="26" r="26" fill="#FFE9E5"/>
<path d="M25.5215 20.2519C25.9912 19.4769 26.7344 18.3677 27.6732 17.3035H27.6742C28.4693 16.4002 30.0262 15.2409 30.0262 15.2409C30.2603 15.0662 30.2351 14.8228 29.9691 14.7003L28.0873 13.8314C27.8212 13.7084 27.4595 13.7981 27.2831 14.0299C27.2831 14.0299 25.8913 16.0027 24.2531 20.2022C19.1879 17.9385 14.3733 21.1092 14.3733 26.6227C14.3733 32.3818 18.8577 41.1298 24.9221 38.4892C31.3091 41.2201 35.474 32.3823 35.474 26.6227C35.474 21.0617 31.1461 17.8013 25.5215 20.2519Z" fill="#F8644A"/>
<path d="M24.3872 18.3867C24.68 18.3624 24.9386 18.1064 24.9621 17.8176C24.9621 17.8176 25.1501 15.5655 23.5617 13.9945C21.9684 12.4229 19.6933 12.6103 19.6933 12.6103C19.4005 12.6346 19.1419 12.8906 19.1179 13.1794C19.1179 13.1794 18.9266 15.4325 20.5172 17.0041C22.1068 18.5741 24.3872 18.3867 24.3872 18.3867Z" fill="#F8644A"/>
<path d="M17.2511 67.0501V67.9801H14.3011V70.0301H16.6011V70.9601H14.3011V74.0001H13.1611V67.0501H17.2511ZM19.4476 69.2901C19.6143 69.0101 19.8343 68.7934 20.1076 68.6401C20.3876 68.4801 20.7176 68.4001 21.0976 68.4001V69.5801H20.8076C20.3609 69.5801 20.0209 69.6934 19.7876 69.9201C19.5609 70.1467 19.4476 70.5401 19.4476 71.1001V74.0001H18.3076V68.4901H19.4476V69.2901ZM27.1355 68.4901V74.0001H25.9955V73.3501C25.8155 73.5767 25.5788 73.7567 25.2855 73.8901C24.9988 74.0167 24.6922 74.0801 24.3655 74.0801C23.9322 74.0801 23.5422 73.9901 23.1955 73.8101C22.8555 73.6301 22.5855 73.3634 22.3855 73.0101C22.1922 72.6567 22.0955 72.2301 22.0955 71.7301V68.4901H23.2255V71.5601C23.2255 72.0534 23.3488 72.4334 23.5955 72.7001C23.8422 72.9601 24.1788 73.0901 24.6055 73.0901C25.0322 73.0901 25.3688 72.9601 25.6155 72.7001C25.8688 72.4334 25.9955 72.0534 25.9955 71.5601V68.4901H27.1355ZM29.2196 67.7601C29.013 67.7601 28.8396 67.6901 28.6996 67.5501C28.5596 67.4101 28.4896 67.2367 28.4896 67.0301C28.4896 66.8234 28.5596 66.6501 28.6996 66.5101C28.8396 66.3701 29.013 66.3001 29.2196 66.3001C29.4196 66.3001 29.5896 66.3701 29.7296 66.5101C29.8696 66.6501 29.9396 66.8234 29.9396 67.0301C29.9396 67.2367 29.8696 67.4101 29.7296 67.5501C29.5896 67.6901 29.4196 67.7601 29.2196 67.7601ZM29.7796 68.4901V74.0001H28.6396V68.4901H29.7796ZM32.6064 69.4201V72.4701C32.6064 72.6767 32.653 72.8267 32.7464 72.9201C32.8464 73.0067 33.013 73.0501 33.2464 73.0501H33.9464V74.0001H33.0464C32.533 74.0001 32.1397 73.8801 31.8664 73.6401C31.593 73.4001 31.4564 73.0101 31.4564 72.4701V69.4201H30.8064V68.4901H31.4564V67.1201H32.6064V68.4901H33.9464V69.4201H32.6064ZM36.9971 74.0901C36.5637 74.0901 36.1737 74.0134 35.8271 73.8601C35.4871 73.7001 35.2171 73.4867 35.0171 73.2201C34.8171 72.9467 34.7104 72.6434 34.6971 72.3101H35.8771C35.8971 72.5434 36.0071 72.7401 36.2071 72.9001C36.4137 73.0534 36.6704 73.1301 36.9771 73.1301C37.2971 73.1301 37.5437 73.0701 37.7171 72.9501C37.8971 72.8234 37.9871 72.6634 37.9871 72.4701C37.9871 72.2634 37.8871 72.1101 37.6871 72.0101C37.4937 71.9101 37.1837 71.8001 36.7571 71.6801C36.3437 71.5667 36.0071 71.4567 35.7471 71.3501C35.4871 71.2434 35.2604 71.0801 35.0671 70.8601C34.8804 70.6401 34.7871 70.3501 34.7871 69.9901C34.7871 69.6967 34.8737 69.4301 35.0471 69.1901C35.2204 68.9434 35.4671 68.7501 35.7871 68.6101C36.1137 68.4701 36.4871 68.4001 36.9071 68.4001C37.5337 68.4001 38.0371 68.5601 38.4171 68.8801C38.8037 69.1934 39.0104 69.6234 39.0371 70.1701H37.8971C37.8771 69.9234 37.7771 69.7267 37.5971 69.5801C37.4171 69.4334 37.1737 69.3601 36.8671 69.3601C36.5671 69.3601 36.3371 69.4167 36.1771 69.5301C36.0171 69.6434 35.9371 69.7934 35.9371 69.9801C35.9371 70.1267 35.9904 70.2501 36.0971 70.3501C36.2037 70.4501 36.3337 70.5301 36.4871 70.5901C36.6404 70.6434 36.8671 70.7134 37.1671 70.8001C37.5671 70.9067 37.8937 71.0167 38.1471 71.1301C38.4071 71.2367 38.6304 71.3967 38.8171 71.6101C39.0037 71.8234 39.1004 72.1067 39.1071 72.4601C39.1071 72.7734 39.0204 73.0534 38.8471 73.3001C38.6737 73.5467 38.4271 73.7401 38.1071 73.8801C37.7937 74.0201 37.4237 74.0901 36.9971 74.0901Z" fill="#868889"/>
</svg>
