<svg width="52" height="78" viewBox="0 0 52 78" fill="none" xmlns="http://www.w3.org/2000/svg">
<circle cx="26" cy="25.9999" r="26" fill="#F3EFFA"/>
<path d="M35.0225 22.0407C32.7346 22.9826 30.3506 23.5782 27.9078 23.8205L29.0594 21.8496L32.9864 22.0825C33.4226 22.1084 33.7975 21.78 33.8236 21.349C33.8498 20.918 33.5174 20.5477 33.0812 20.5218L29.944 20.3357L30.6418 19.1415L34.5689 19.3744C35.005 19.4003 35.3799 19.0719 35.4061 18.6409C35.4322 18.2099 35.0999 17.8396 34.6637 17.8136L31.5265 17.6276L32.4029 16.1276C33.2768 14.6319 35.2124 14.1195 36.7262 14.983C38.24 15.8466 38.7586 17.7591 37.8846 19.2548L36.6478 21.3716L35.0225 22.0407Z" fill="#AE80FF"/>
<path d="M25.3858 23.945C24.3359 23.945 23.2943 23.881 22.2638 23.7538C22.2361 23.5608 22.2209 23.3638 22.2209 23.1632C22.2209 20.8604 24.1102 18.9937 26.4408 18.9937C27.2169 18.9937 27.9436 19.2016 28.5684 19.5629L26.0122 23.9374C25.8038 23.9425 25.595 23.945 25.3858 23.945Z" fill="#AE80FF"/>
<path d="M21.1969 20.7103C20.6123 19.1826 20.5052 18.033 20.5037 18.0153C20.4666 17.5852 20.0835 17.2671 19.6482 17.3026C19.2129 17.3392 18.8899 17.7176 18.9269 18.1478C18.9366 18.26 19.1563 20.6196 20.6395 23.2165C20.6404 23.3119 20.6444 23.4066 20.65 23.5008C18.9782 23.183 17.3403 22.6958 15.749 22.0406L14.7966 21.6485C14.9218 21.3454 15.0962 21.063 15.3149 20.8138C14.2408 20.3432 13.5173 19.2864 13.5173 18.0816C13.5173 16.4291 14.8779 15.0847 16.5504 15.0847C16.8154 15.0847 17.0777 15.1199 17.3345 15.1894C17.6931 13.9127 18.8682 13 20.2428 13C21.5815 13 22.7405 13.8623 23.131 15.0984C23.2242 15.0893 23.3162 15.0847 23.4077 15.0847C24.854 15.0847 26.0663 16.0904 26.3679 17.431C24.0872 17.4589 22.1192 18.7934 21.1969 20.7103Z" fill="#AE80FF"/>
<path d="M15.1404 23.484C18.4036 24.8275 21.8507 25.5086 25.3858 25.5086C28.921 25.5086 32.368 24.8275 35.6312 23.484C36.1863 23.2555 36.7863 23.6981 36.7222 24.2889C36.4587 26.7198 35.5045 35.613 35.2911 37.5889C35.162 38.7838 34.1473 39.685 32.9308 39.685H17.8409C16.6244 39.685 15.6097 38.7838 15.4806 37.5888C15.2671 35.613 14.313 26.7197 14.0494 24.2889C13.9853 23.6981 14.5853 23.2555 15.1404 23.484ZM19.3197 34.4731C19.3197 34.9049 19.674 35.2549 20.111 35.2549H30.6607C31.0977 35.2549 31.4519 34.9049 31.4519 34.4731V30.3036C31.4519 29.8718 31.0977 29.5218 30.6607 29.5218H20.111C19.674 29.5218 19.3197 29.8718 19.3197 30.3036V34.4731Z" fill="#AE80FF"/>
<path d="M29.8694 31.0853H20.9021V33.6913H29.8694V31.0853Z" fill="#AE80FF"/>
<path d="M11.8922 69.05C11.7122 68.7033 11.4622 68.4433 11.1422 68.27C10.8222 68.09 10.4522 68 10.0322 68C9.57221 68 9.16221 68.1033 8.80221 68.31C8.44221 68.5167 8.15888 68.81 7.95221 69.19C7.75221 69.57 7.65221 70.01 7.65221 70.51C7.65221 71.01 7.75221 71.4533 7.95221 71.84C8.15888 72.22 8.44221 72.5133 8.80221 72.72C9.16221 72.9267 9.57221 73.03 10.0322 73.03C10.6522 73.03 11.1555 72.8567 11.5422 72.51C11.9289 72.1633 12.1655 71.6933 12.2522 71.1H9.64221V70.19H13.4722V71.08C13.3989 71.62 13.2055 72.1167 12.8922 72.57C12.5855 73.0233 12.1822 73.3867 11.6822 73.66C11.1889 73.9267 10.6389 74.06 10.0322 74.06C9.37888 74.06 8.78221 73.91 8.24221 73.61C7.70221 73.3033 7.27221 72.88 6.95221 72.34C6.63888 71.8 6.48221 71.19 6.48221 70.51C6.48221 69.83 6.63888 69.22 6.95221 68.68C7.27221 68.14 7.70221 67.72 8.24221 67.42C8.78888 67.1133 9.38555 66.96 10.0322 66.96C10.7722 66.96 11.4289 67.1433 12.0022 67.51C12.5822 67.87 13.0022 68.3833 13.2622 69.05H11.8922ZM15.7366 69.29C15.9033 69.01 16.1233 68.7933 16.3966 68.64C16.6766 68.48 17.0066 68.4 17.3866 68.4V69.58H17.0966C16.6499 69.58 16.3099 69.6933 16.0766 69.92C15.8499 70.1467 15.7366 70.54 15.7366 71.1V74H14.5966V68.49H15.7366V69.29ZM20.8245 74.09C20.3045 74.09 19.8345 73.9733 19.4145 73.74C18.9945 73.5 18.6645 73.1667 18.4245 72.74C18.1845 72.3067 18.0645 71.8067 18.0645 71.24C18.0645 70.68 18.1878 70.1833 18.4345 69.75C18.6811 69.3167 19.0178 68.9833 19.4445 68.75C19.8711 68.5167 20.3478 68.4 20.8745 68.4C21.4011 68.4 21.8778 68.5167 22.3045 68.75C22.7311 68.9833 23.0678 69.3167 23.3145 69.75C23.5611 70.1833 23.6845 70.68 23.6845 71.24C23.6845 71.8 23.5578 72.2967 23.3045 72.73C23.0511 73.1633 22.7045 73.5 22.2645 73.74C21.8311 73.9733 21.3511 74.09 20.8245 74.09ZM20.8245 73.1C21.1178 73.1 21.3911 73.03 21.6445 72.89C21.9045 72.75 22.1145 72.54 22.2745 72.26C22.4345 71.98 22.5145 71.64 22.5145 71.24C22.5145 70.84 22.4378 70.5033 22.2845 70.23C22.1311 69.95 21.9278 69.74 21.6745 69.6C21.4211 69.46 21.1478 69.39 20.8545 69.39C20.5611 69.39 20.2878 69.46 20.0345 69.6C19.7878 69.74 19.5911 69.95 19.4445 70.23C19.2978 70.5033 19.2245 70.84 19.2245 71.24C19.2245 71.8333 19.3745 72.2933 19.6745 72.62C19.9811 72.94 20.3645 73.1 20.8245 73.1ZM24.4314 71.24C24.4314 70.6733 24.5448 70.1767 24.7714 69.75C25.0048 69.3167 25.3248 68.9833 25.7314 68.75C26.1381 68.5167 26.6048 68.4 27.1314 68.4C27.7981 68.4 28.3481 68.56 28.7814 68.88C29.2214 69.1933 29.5181 69.6433 29.6714 70.23H28.4414C28.3414 69.9567 28.1814 69.7433 27.9614 69.59C27.7414 69.4367 27.4648 69.36 27.1314 69.36C26.6648 69.36 26.2914 69.5267 26.0114 69.86C25.7381 70.1867 25.6014 70.6467 25.6014 71.24C25.6014 71.8333 25.7381 72.2967 26.0114 72.63C26.2914 72.9633 26.6648 73.13 27.1314 73.13C27.7914 73.13 28.2281 72.84 28.4414 72.26H29.6714C29.5114 72.82 29.2114 73.2667 28.7714 73.6C28.3314 73.9267 27.7848 74.09 27.1314 74.09C26.6048 74.09 26.1381 73.9733 25.7314 73.74C25.3248 73.5 25.0048 73.1667 24.7714 72.74C24.5448 72.3067 24.4314 71.8067 24.4314 71.24ZM35.8575 71.11C35.8575 71.3167 35.8442 71.5033 35.8175 71.67H31.6075C31.6409 72.11 31.8042 72.4633 32.0975 72.73C32.3909 72.9967 32.7509 73.13 33.1775 73.13C33.7909 73.13 34.2242 72.8733 34.4775 72.36H35.7075C35.5409 72.8667 35.2375 73.2833 34.7975 73.61C34.3642 73.93 33.8242 74.09 33.1775 74.09C32.6509 74.09 32.1775 73.9733 31.7575 73.74C31.3442 73.5 31.0175 73.1667 30.7775 72.74C30.5442 72.3067 30.4275 71.8067 30.4275 71.24C30.4275 70.6733 30.5409 70.1767 30.7675 69.75C31.0009 69.3167 31.3242 68.9833 31.7375 68.75C32.1575 68.5167 32.6375 68.4 33.1775 68.4C33.6975 68.4 34.1609 68.5133 34.5675 68.74C34.9742 68.9667 35.2909 69.2867 35.5175 69.7C35.7442 70.1067 35.8575 70.5767 35.8575 71.11ZM34.6675 70.75C34.6609 70.33 34.5109 69.9933 34.2175 69.74C33.9242 69.4867 33.5609 69.36 33.1275 69.36C32.7342 69.36 32.3975 69.4867 32.1175 69.74C31.8375 69.9867 31.6709 70.3233 31.6175 70.75H34.6675ZM38.1194 69.29C38.2861 69.01 38.5061 68.7933 38.7794 68.64C39.0594 68.48 39.3894 68.4 39.7694 68.4V69.58H39.4794C39.0327 69.58 38.6927 69.6933 38.4594 69.92C38.2327 70.1467 38.1194 70.54 38.1194 71.1V74H36.9794V68.49H38.1194V69.29ZM45.7773 68.49L42.3973 76.59H41.2173L42.3373 73.91L40.1673 68.49H41.4373L42.9873 72.69L44.5973 68.49H45.7773Z" fill="#868889"/>
</svg>
