<svg width="45" height="78" viewBox="0 0 45 78" fill="none" xmlns="http://www.w3.org/2000/svg">
<circle cx="28" cy="25.9999" r="26" fill="#FFE8F2"/>
<g clip-path="url(#clip0_4_164)">
<path d="M37.7708 13.8315C35.5433 12.5458 32.4725 12.4916 29.7584 13.6904C27.2471 14.8002 25.4368 17.2455 24.3667 19.0832C23.885 18.9658 23.3696 19.1948 23.1459 19.6609C22.9319 20.1066 23.0569 20.6237 23.413 20.9327C23.3154 21.1499 23.2559 21.2958 23.2334 21.3527L18.0358 32.7689C17.5118 32.5275 16.8874 32.7426 16.6289 33.2635C16.3655 33.7939 16.5817 34.4376 17.1122 34.7015L17.1476 34.7192L15.9783 37.289H13.0728C12.4806 37.289 12 37.7696 12 38.3618C12 38.9539 12.4806 39.4345 13.0728 39.4345H18.4366C19.0287 39.4345 19.5093 38.9539 19.5093 38.3618C19.5093 37.7696 19.0287 37.289 18.4366 37.289H18.3357L19.0796 35.6547C19.1778 35.6831 19.277 35.7024 19.3763 35.7024C19.7705 35.7024 20.1503 35.4841 20.338 35.107C20.5837 34.6125 20.4088 34.0241 19.955 33.7323L25.3409 21.9025C25.4862 21.9695 25.638 22.0028 25.7887 22.0028C26.1883 22.0028 26.5718 21.7786 26.7563 21.394C27.002 20.8828 26.8024 20.2767 26.3165 20.001C27.2342 18.4546 28.7034 16.5027 30.6263 15.6531C32.6935 14.7396 35.0772 14.7536 36.6986 15.6896C37.891 16.3777 38.576 17.4725 38.7358 18.9443C39.0351 21.7008 38.7813 23.5491 37.9838 24.4389C37.9103 24.521 37.8293 24.5913 37.7467 24.6578V27.0591C38.4075 26.836 39.0421 26.4718 39.5806 25.8716C40.8207 24.4904 41.2417 22.1486 40.869 18.7131C40.6384 16.5842 39.5377 14.8506 37.7708 13.8315Z" fill="#FF7EB6"/>
<path d="M34.7157 31.9252C35.4157 31.9252 36.0776 32.0845 36.6735 32.3623V27.3091V25.1325V23.8795C36.6735 23.2869 36.7298 23.3432 36.1371 23.3432H34.0362C33.4435 23.3432 27.4655 23.835 25.8864 31.6409L24.8731 38.0935C24.8731 38.6862 25.3532 39.4344 25.9459 39.4344H31.0367C30.4241 38.6455 30.0556 37.6585 30.0556 36.5852C30.0556 34.0154 32.1465 31.9252 34.7157 31.9252Z" fill="#FF7EB6"/>
<path d="M37.2099 34.0127C37.0452 33.8534 36.866 33.7097 36.6735 33.5836C36.1098 33.2146 35.4377 32.9979 34.7158 32.9979C32.7376 32.9979 31.1284 34.6071 31.1284 36.5852C31.1284 37.747 31.6863 38.779 32.5456 39.4345C32.8449 39.6629 33.1801 39.8448 33.5422 39.9708C33.9107 40.099 34.3044 40.172 34.7158 40.172C35.1272 40.172 35.521 40.099 35.8894 39.9708C36.2692 39.8388 36.6205 39.6452 36.9305 39.4012C37.2223 39.1716 37.4793 38.8997 37.688 38.5918C38.0763 38.0184 38.3037 37.3276 38.3037 36.5847C38.3037 35.8821 38.0978 35.2281 37.7475 34.6746C37.5933 34.4332 37.4142 34.2107 37.2099 34.0127ZM34.7157 34.7857C35.7091 34.7857 36.5147 35.5913 36.5147 36.5847C36.5147 37.5781 35.7091 38.3837 34.7157 38.3837C33.7223 38.3837 32.9167 37.5781 32.9167 36.5847C32.9167 35.5913 33.7218 34.7857 34.7157 34.7857Z" fill="#FF7EB6"/>
</g>
<path d="M6.43965 67.05V74H5.29965V70.96H2.02965V74H0.889648V67.05H2.02965V70.03H5.29965V67.05H6.43965ZM10.3304 74.09C9.81043 74.09 9.34043 73.9733 8.92043 73.74C8.50043 73.5 8.17043 73.1667 7.93043 72.74C7.69043 72.3067 7.57043 71.8067 7.57043 71.24C7.57043 70.68 7.69376 70.1833 7.94043 69.75C8.1871 69.3167 8.52376 68.9833 8.95043 68.75C9.3771 68.5167 9.85376 68.4 10.3804 68.4C10.9071 68.4 11.3838 68.5167 11.8104 68.75C12.2371 68.9833 12.5738 69.3167 12.8204 69.75C13.0671 70.1833 13.1904 70.68 13.1904 71.24C13.1904 71.8 13.0638 72.2967 12.8104 72.73C12.5571 73.1633 12.2104 73.5 11.7704 73.74C11.3371 73.9733 10.8571 74.09 10.3304 74.09ZM10.3304 73.1C10.6238 73.1 10.8971 73.03 11.1504 72.89C11.4104 72.75 11.6204 72.54 11.7804 72.26C11.9404 71.98 12.0204 71.64 12.0204 71.24C12.0204 70.84 11.9438 70.5033 11.7904 70.23C11.6371 69.95 11.4338 69.74 11.1804 69.6C10.9271 69.46 10.6538 69.39 10.3604 69.39C10.0671 69.39 9.79376 69.46 9.54043 69.6C9.29376 69.74 9.0971 69.95 8.95043 70.23C8.80376 70.5033 8.73043 70.84 8.73043 71.24C8.73043 71.8333 8.88043 72.2933 9.18043 72.62C9.4871 72.94 9.87043 73.1 10.3304 73.1ZM19.3074 68.49V74H18.1674V73.35C17.9874 73.5767 17.7507 73.7567 17.4574 73.89C17.1707 74.0167 16.864 74.08 16.5374 74.08C16.104 74.08 15.714 73.99 15.3674 73.81C15.0274 73.63 14.7574 73.3633 14.5574 73.01C14.364 72.6567 14.2674 72.23 14.2674 71.73V68.49H15.3974V71.56C15.3974 72.0533 15.5207 72.4333 15.7674 72.7C16.014 72.96 16.3507 73.09 16.7774 73.09C17.204 73.09 17.5407 72.96 17.7874 72.7C18.0407 72.4333 18.1674 72.0533 18.1674 71.56V68.49H19.3074ZM22.8115 74.09C22.3782 74.09 21.9882 74.0133 21.6415 73.86C21.3015 73.7 21.0315 73.4867 20.8315 73.22C20.6315 72.9467 20.5249 72.6433 20.5115 72.31H21.6915C21.7115 72.5433 21.8215 72.74 22.0215 72.9C22.2282 73.0533 22.4849 73.13 22.7915 73.13C23.1115 73.13 23.3582 73.07 23.5315 72.95C23.7115 72.8233 23.8015 72.6633 23.8015 72.47C23.8015 72.2633 23.7015 72.11 23.5015 72.01C23.3082 71.91 22.9982 71.8 22.5715 71.68C22.1582 71.5667 21.8215 71.4567 21.5615 71.35C21.3015 71.2433 21.0749 71.08 20.8815 70.86C20.6949 70.64 20.6015 70.35 20.6015 69.99C20.6015 69.6967 20.6882 69.43 20.8615 69.19C21.0349 68.9433 21.2815 68.75 21.6015 68.61C21.9282 68.47 22.3015 68.4 22.7215 68.4C23.3482 68.4 23.8515 68.56 24.2315 68.88C24.6182 69.1933 24.8249 69.6233 24.8515 70.17H23.7115C23.6915 69.9233 23.5915 69.7267 23.4115 69.58C23.2315 69.4333 22.9882 69.36 22.6815 69.36C22.3815 69.36 22.1515 69.4167 21.9915 69.53C21.8315 69.6433 21.7515 69.7933 21.7515 69.98C21.7515 70.1267 21.8049 70.25 21.9115 70.35C22.0182 70.45 22.1482 70.53 22.3015 70.59C22.4549 70.6433 22.6815 70.7133 22.9815 70.8C23.3815 70.9067 23.7082 71.0167 23.9615 71.13C24.2215 71.2367 24.4449 71.3967 24.6315 71.61C24.8182 71.8233 24.9149 72.1067 24.9215 72.46C24.9215 72.7733 24.8349 73.0533 24.6615 73.3C24.4882 73.5467 24.2415 73.74 23.9215 73.88C23.6082 74.02 23.2382 74.09 22.8115 74.09ZM31.2033 71.11C31.2033 71.3167 31.19 71.5033 31.1633 71.67H26.9533C26.9867 72.11 27.15 72.4633 27.4433 72.73C27.7367 72.9967 28.0967 73.13 28.5233 73.13C29.1367 73.13 29.57 72.8733 29.8233 72.36H31.0533C30.8867 72.8667 30.5833 73.2833 30.1433 73.61C29.71 73.93 29.17 74.09 28.5233 74.09C27.9967 74.09 27.5233 73.9733 27.1033 73.74C26.69 73.5 26.3633 73.1667 26.1233 72.74C25.89 72.3067 25.7733 71.8067 25.7733 71.24C25.7733 70.6733 25.8867 70.1767 26.1133 69.75C26.3467 69.3167 26.67 68.9833 27.0833 68.75C27.5033 68.5167 27.9833 68.4 28.5233 68.4C29.0433 68.4 29.5067 68.5133 29.9133 68.74C30.32 68.9667 30.6367 69.2867 30.8633 69.7C31.09 70.1067 31.2033 70.5767 31.2033 71.11ZM30.0133 70.75C30.0067 70.33 29.8567 69.9933 29.5633 69.74C29.27 69.4867 28.9067 69.36 28.4733 69.36C28.08 69.36 27.7433 69.4867 27.4633 69.74C27.1833 69.9867 27.0167 70.3233 26.9633 70.75H30.0133ZM35.1752 68.4C35.5952 68.4 35.9685 68.49 36.2952 68.67C36.6285 68.85 36.8885 69.1167 37.0752 69.47C37.2685 69.8233 37.3652 70.25 37.3652 70.75V74H36.2352V70.92C36.2352 70.4267 36.1119 70.05 35.8652 69.79C35.6185 69.5233 35.2819 69.39 34.8552 69.39C34.4285 69.39 34.0885 69.5233 33.8352 69.79C33.5885 70.05 33.4652 70.4267 33.4652 70.92V74H32.3252V66.6H33.4652V69.13C33.6585 68.8967 33.9019 68.7167 34.1952 68.59C34.4952 68.4633 34.8219 68.4 35.1752 68.4ZM41.2093 74.09C40.6893 74.09 40.2193 73.9733 39.7993 73.74C39.3793 73.5 39.0493 73.1667 38.8093 72.74C38.5693 72.3067 38.4493 71.8067 38.4493 71.24C38.4493 70.68 38.5727 70.1833 38.8193 69.75C39.066 69.3167 39.4027 68.9833 39.8293 68.75C40.256 68.5167 40.7327 68.4 41.2593 68.4C41.786 68.4 42.2627 68.5167 42.6893 68.75C43.116 68.9833 43.4527 69.3167 43.6993 69.75C43.946 70.1833 44.0693 70.68 44.0693 71.24C44.0693 71.8 43.9427 72.2967 43.6893 72.73C43.436 73.1633 43.0893 73.5 42.6493 73.74C42.216 73.9733 41.736 74.09 41.2093 74.09ZM41.2093 73.1C41.5027 73.1 41.776 73.03 42.0293 72.89C42.2893 72.75 42.4993 72.54 42.6593 72.26C42.8193 71.98 42.8993 71.64 42.8993 71.24C42.8993 70.84 42.8227 70.5033 42.6693 70.23C42.516 69.95 42.3127 69.74 42.0593 69.6C41.806 69.46 41.5327 69.39 41.2393 69.39C40.946 69.39 40.6727 69.46 40.4193 69.6C40.1727 69.74 39.976 69.95 39.8293 70.23C39.6827 70.5033 39.6093 70.84 39.6093 71.24C39.6093 71.8333 39.7593 72.2933 40.0593 72.62C40.366 72.94 40.7493 73.1 41.2093 73.1ZM46.3363 66.6V74H45.1963V66.6H46.3363ZM47.453 71.22C47.453 70.6667 47.5663 70.1767 47.793 69.75C48.0263 69.3233 48.3397 68.9933 48.733 68.76C49.133 68.52 49.5763 68.4 50.063 68.4C50.423 68.4 50.7763 68.48 51.123 68.64C51.4763 68.7933 51.7563 69 51.963 69.26V66.6H53.113V74H51.963V73.17C51.7763 73.4367 51.5163 73.6567 51.183 73.83C50.8563 74.0033 50.4797 74.09 50.053 74.09C49.573 74.09 49.133 73.97 48.733 73.73C48.3397 73.4833 48.0263 73.1433 47.793 72.71C47.5663 72.27 47.453 71.7733 47.453 71.22ZM51.963 71.24C51.963 70.86 51.883 70.53 51.723 70.25C51.5697 69.97 51.3663 69.7567 51.113 69.61C50.8597 69.4633 50.5863 69.39 50.293 69.39C49.9997 69.39 49.7263 69.4633 49.473 69.61C49.2197 69.75 49.013 69.96 48.853 70.24C48.6997 70.5133 48.623 70.84 48.623 71.22C48.623 71.6 48.6997 71.9333 48.853 72.22C49.013 72.5067 49.2197 72.7267 49.473 72.88C49.733 73.0267 50.0063 73.1 50.293 73.1C50.5863 73.1 50.8597 73.0267 51.113 72.88C51.3663 72.7333 51.5697 72.52 51.723 72.24C51.883 71.9533 51.963 71.62 51.963 71.24Z" fill="#868889"/>
<defs>
<clipPath id="clip0_4_164">
<rect width="29" height="29" fill="white" transform="translate(12 11.9999)"/>
</clipPath>
</defs>
</svg>
