<svg width="52" height="78" viewBox="0 0 52 78" fill="none" xmlns="http://www.w3.org/2000/svg">
<circle cx="26" cy="25.9999" r="26" fill="#DCF4F5"/>
<path d="M33.0719 13.7617C33.0719 13.341 32.7268 12.9999 32.301 12.9999H29.2173C28.7916 12.9999 28.4464 13.341 28.4464 13.7617V15.082H33.0719V13.7617Z" fill="#0CD4DC"/>
<path d="M19.4802 35.0029C18.8014 34.6072 18.1749 34.1276 17.6182 33.5775C17.5775 33.5374 17.5378 33.4964 17.4981 33.4556C16.5801 33.9074 15.7506 34.5388 15.064 35.3251C14.8144 35.611 14.8144 36.0344 15.064 36.3203C16.5509 38.0232 18.708 38.9999 20.9822 38.9999C21.6606 38.9999 22.3282 38.9124 22.9711 38.7452C22.164 37.9039 21.505 36.9405 21.0157 35.8979L19.4802 35.0029Z" fill="#0CD4DC"/>
<path d="M20.2637 33.6909C20.102 32.9578 20.0177 32.2035 20.0177 31.4393C20.0177 29.7098 20.4438 28.0418 21.2213 26.5588C19.9764 25.9447 18.5739 25.6637 17.1534 25.7671C16.7723 25.7948 16.4693 26.0942 16.4413 26.4708C16.274 28.7138 17.1003 30.9115 18.7084 32.5004C19.1788 32.9652 19.7021 33.3635 20.2637 33.6909Z" fill="#0CD4DC"/>
<path d="M35.1837 23.4682C33.9475 22.797 33.2385 21.6129 33.2385 20.2193V18.1257C33.6343 18.0935 33.9455 17.7665 33.9455 17.3672C33.9455 16.9671 33.6331 16.6398 33.2364 16.6086C33.2362 16.6065 28.2819 16.6065 28.2818 16.6086C27.885 16.6398 27.5727 16.9671 27.5727 17.3672C27.5727 17.7665 27.8838 18.0935 28.2796 18.1257V20.2193C28.2796 21.6128 27.5706 22.797 26.3345 23.4682C24.3112 24.5667 22.8145 26.352 22.0756 28.4375H39.4426C38.7037 26.3519 37.207 24.5667 35.1837 23.4682Z" fill="#0CD4DC"/>
<path d="M39.8357 29.9609H21.6826C21.6018 30.445 21.5595 30.939 21.5595 31.4392C21.5595 34.3818 23.0119 37.1558 25.4448 38.8596C25.5751 38.9509 25.7308 38.9999 25.8906 38.9999H35.6277C35.7874 38.9999 35.9432 38.9509 36.0735 38.8596C38.5063 37.1558 39.9587 34.3818 39.9587 31.4392C39.9588 30.9391 39.9164 30.445 39.8357 29.9609Z" fill="#0CD4DC"/>
<path d="M6.14391 67.97V70.01H8.54391V70.94H6.14391V73.07H8.84391V74H5.00391V67.04H8.84391V67.97H6.14391ZM9.86805 71.22C9.86805 70.6667 9.98138 70.1767 10.208 69.75C10.4414 69.3233 10.7547 68.9933 11.148 68.76C11.548 68.52 11.9914 68.4 12.478 68.4C12.838 68.4 13.1914 68.48 13.538 68.64C13.8914 68.7933 14.1714 69 14.378 69.26V66.6H15.528V74H14.378V73.17C14.1914 73.4367 13.9314 73.6567 13.598 73.83C13.2714 74.0033 12.8947 74.09 12.468 74.09C11.988 74.09 11.548 73.97 11.148 73.73C10.7547 73.4833 10.4414 73.1433 10.208 72.71C9.98138 72.27 9.86805 71.7733 9.86805 71.22ZM14.378 71.24C14.378 70.86 14.298 70.53 14.138 70.25C13.9847 69.97 13.7814 69.7567 13.528 69.61C13.2747 69.4633 13.0014 69.39 12.708 69.39C12.4147 69.39 12.1414 69.4633 11.888 69.61C11.6347 69.75 11.428 69.96 11.268 70.24C11.1147 70.5133 11.038 70.84 11.038 71.22C11.038 71.6 11.1147 71.9333 11.268 72.22C11.428 72.5067 11.6347 72.7267 11.888 72.88C12.148 73.0267 12.4214 73.1 12.708 73.1C13.0014 73.1 13.2747 73.0267 13.528 72.88C13.7814 72.7333 13.9847 72.52 14.138 72.24C14.298 71.9533 14.378 71.62 14.378 71.24ZM17.6054 67.76C17.3987 67.76 17.2254 67.69 17.0854 67.55C16.9454 67.41 16.8754 67.2367 16.8754 67.03C16.8754 66.8233 16.9454 66.65 17.0854 66.51C17.2254 66.37 17.3987 66.3 17.6054 66.3C17.8054 66.3 17.9754 66.37 18.1154 66.51C18.2554 66.65 18.3254 66.8233 18.3254 67.03C18.3254 67.2367 18.2554 67.41 18.1154 67.55C17.9754 67.69 17.8054 67.76 17.6054 67.76ZM18.1654 68.49V74H17.0254V68.49H18.1654ZM20.8021 69.31C20.9954 69.0433 21.2588 68.8267 21.5921 68.66C21.9321 68.4867 22.3088 68.4 22.7221 68.4C23.2088 68.4 23.6488 68.5167 24.0421 68.75C24.4354 68.9833 24.7454 69.3167 24.9721 69.75C25.1988 70.1767 25.3121 70.6667 25.3121 71.22C25.3121 71.7733 25.1988 72.27 24.9721 72.71C24.7454 73.1433 24.4321 73.4833 24.0321 73.73C23.6388 73.97 23.2021 74.09 22.7221 74.09C22.2954 74.09 21.9154 74.0067 21.5821 73.84C21.2554 73.6733 20.9954 73.46 20.8021 73.2V74H19.6621V66.6H20.8021V69.31ZM24.1521 71.22C24.1521 70.84 24.0721 70.5133 23.9121 70.24C23.7588 69.96 23.5521 69.75 23.2921 69.61C23.0388 69.4633 22.7654 69.39 22.4721 69.39C22.1854 69.39 21.9121 69.4633 21.6521 69.61C21.3988 69.7567 21.1921 69.97 21.0321 70.25C20.8788 70.53 20.8021 70.86 20.8021 71.24C20.8021 71.62 20.8788 71.9533 21.0321 72.24C21.1921 72.52 21.3988 72.7333 21.6521 72.88C21.9121 73.0267 22.1854 73.1 22.4721 73.1C22.7654 73.1 23.0388 73.0267 23.2921 72.88C23.5521 72.7267 23.7588 72.5067 23.9121 72.22C24.0721 71.9333 24.1521 71.6 24.1521 71.22ZM27.5795 66.6V74H26.4395V66.6H27.5795ZM34.1262 71.11C34.1262 71.3167 34.1128 71.5033 34.0862 71.67H29.8762C29.9095 72.11 30.0728 72.4633 30.3662 72.73C30.6595 72.9967 31.0195 73.13 31.4462 73.13C32.0595 73.13 32.4928 72.8733 32.7462 72.36H33.9762C33.8095 72.8667 33.5062 73.2833 33.0662 73.61C32.6328 73.93 32.0928 74.09 31.4462 74.09C30.9195 74.09 30.4462 73.9733 30.0262 73.74C29.6128 73.5 29.2862 73.1667 29.0462 72.74C28.8128 72.3067 28.6962 71.8067 28.6962 71.24C28.6962 70.6733 28.8095 70.1767 29.0362 69.75C29.2695 69.3167 29.5928 68.9833 30.0062 68.75C30.4262 68.5167 30.9062 68.4 31.4462 68.4C31.9662 68.4 32.4295 68.5133 32.8362 68.74C33.2428 68.9667 33.5595 69.2867 33.7862 69.7C34.0128 70.1067 34.1262 70.5767 34.1262 71.11ZM32.9362 70.75C32.9295 70.33 32.7795 69.9933 32.4862 69.74C32.1928 69.4867 31.8295 69.36 31.3962 69.36C31.0028 69.36 30.6662 69.4867 30.3862 69.74C30.1062 69.9867 29.9395 70.3233 29.8862 70.75H32.9362ZM40.2357 74.09C39.7157 74.09 39.2457 73.9733 38.8257 73.74C38.4057 73.5 38.0757 73.1667 37.8357 72.74C37.5957 72.3067 37.4757 71.8067 37.4757 71.24C37.4757 70.68 37.599 70.1833 37.8457 69.75C38.0924 69.3167 38.429 68.9833 38.8557 68.75C39.2824 68.5167 39.759 68.4 40.2857 68.4C40.8124 68.4 41.289 68.5167 41.7157 68.75C42.1424 68.9833 42.479 69.3167 42.7257 69.75C42.9724 70.1833 43.0957 70.68 43.0957 71.24C43.0957 71.8 42.969 72.2967 42.7157 72.73C42.4624 73.1633 42.1157 73.5 41.6757 73.74C41.2424 73.9733 40.7624 74.09 40.2357 74.09ZM40.2357 73.1C40.529 73.1 40.8024 73.03 41.0557 72.89C41.3157 72.75 41.5257 72.54 41.6857 72.26C41.8457 71.98 41.9257 71.64 41.9257 71.24C41.9257 70.84 41.849 70.5033 41.6957 70.23C41.5424 69.95 41.339 69.74 41.0857 69.6C40.8324 69.46 40.559 69.39 40.2657 69.39C39.9724 69.39 39.699 69.46 39.4457 69.6C39.199 69.74 39.0024 69.95 38.8557 70.23C38.709 70.5033 38.6357 70.84 38.6357 71.24C38.6357 71.8333 38.7857 72.2933 39.0857 72.62C39.3924 72.94 39.7757 73.1 40.2357 73.1ZM44.8027 67.76C44.596 67.76 44.4227 67.69 44.2827 67.55C44.1427 67.41 44.0727 67.2367 44.0727 67.03C44.0727 66.8233 44.1427 66.65 44.2827 66.51C44.4227 66.37 44.596 66.3 44.8027 66.3C45.0027 66.3 45.1727 66.37 45.3127 66.51C45.4527 66.65 45.5227 66.8233 45.5227 67.03C45.5227 67.2367 45.4527 67.41 45.3127 67.55C45.1727 67.69 45.0027 67.76 44.8027 67.76ZM45.3627 68.49V74H44.2227V68.49H45.3627ZM47.9994 66.6V74H46.8594V66.6H47.9994Z" fill="#868889"/>
</svg>
