<svg width="59" height="78" viewBox="0 0 59 78" fill="none" xmlns="http://www.w3.org/2000/svg">
<circle cx="33" cy="26" r="26" fill="#E6F2EA"/>
<path d="M22.4656 25.8812C22.4656 25.1539 22.6839 24.4543 23.0896 23.8621C22.9563 23.4372 22.8874 22.992 22.8874 22.5509C22.8874 20.6483 24.1019 18.9908 25.8625 18.3686C26.0195 16.95 26.941 15.7294 28.2396 15.1451C27.5722 14.0785 26.5188 13.4532 25.5476 13.6086C24.8458 13.7213 24.2643 14.192 23.9225 14.9026C23.3074 14.6235 22.6678 14.5771 22.1068 14.7719C21.4998 14.983 21.0283 15.4344 20.7434 16.0769C20.3654 16.928 20.365 18.0232 20.7304 19.0646C20.2379 19.3985 19.8698 19.8891 19.6546 20.5043C19.2927 21.5373 19.4135 22.7836 19.9856 23.9252C20.0483 24.0498 20.1167 24.1734 20.1914 24.2949C19.6542 24.6398 19.252 25.1512 19.0364 25.7752C18.6938 26.7654 18.8454 27.9322 19.4524 28.9753C19.7311 29.4545 20.1001 29.8886 20.53 30.2455C20.3864 30.839 20.4951 31.4913 20.8449 32.0818C21.3339 32.9054 22.2146 33.4641 23.1558 33.5582C24.4163 35.8971 25.9399 37.0903 28.1188 38.1242C25.5302 35.103 24.0907 32.6007 24.0097 28.8274C23.0569 28.1556 22.4656 27.052 22.4656 25.8812Z" fill="#28B446"/>
<path d="M42.3831 22.4312C42.4188 20.7115 41.3958 19.1644 39.8105 18.4958C39.5793 17.0282 38.3813 15.8813 36.8926 15.687C36.8792 15.5408 36.851 15.3951 36.8085 15.2511C36.546 14.3661 35.7556 13.6996 34.8426 13.5928C34.2454 13.5225 33.6809 13.6705 33.2143 13.9942C32.7983 13.7226 32.3139 13.576 31.8173 13.576C30.5385 13.576 29.4756 14.5087 29.2904 15.7214C27.8281 16.0129 26.7318 17.2994 26.7318 18.8045C26.7318 18.8853 26.7353 18.9661 26.7416 19.0483C25.0462 19.3495 23.7803 20.8038 23.7803 22.5513C23.7803 23.0565 23.8908 23.5574 24.1028 24.018C23.6265 24.521 23.359 25.183 23.359 25.8817C23.359 26.9257 23.9664 27.8726 24.9 28.3283C24.8588 32.3309 26.3354 34.7607 29.2162 38.035L29.3786 38.2174L29.4081 38.2505C29.8447 38.7341 30.4731 39 31.1786 39C31.3007 39 31.421 38.9898 31.5396 38.9748L31.3866 38.6816C30.4253 36.4244 29.8353 34.4202 29.506 32.6387C28.2656 32.2615 27.7293 31.2829 27.7056 31.2378C27.5902 31.0223 27.6747 30.7547 27.893 30.6412C28.1099 30.5277 28.3797 30.6098 28.4964 30.824C28.513 30.8545 28.7733 31.3067 29.3428 31.615C29.1871 30.4592 29.1419 29.4037 29.1871 28.4524C29.1817 28.4043 29.184 28.357 29.1951 28.3085C29.273 26.9487 29.5244 25.7978 29.8563 24.8332C28.3493 23.946 28.1632 22.2943 28.2929 21.4927C28.3318 21.252 28.5617 21.0855 28.8051 21.1262C29.0489 21.1646 29.2148 21.3903 29.1768 21.6305C29.1656 21.7016 28.9648 23.1665 30.1851 23.9906C30.2459 23.8515 30.3072 23.7133 30.3707 23.5839C31.5472 21.1867 33.2286 19.9938 33.8795 19.6003C33.8781 18.7157 34.4655 17.9473 34.4932 17.9115C34.6431 17.7176 34.9249 17.6814 35.1199 17.8289C35.3158 17.9769 35.3534 18.2538 35.204 18.4472C35.1043 18.5779 34.9083 18.9034 34.8207 19.2616C35.8508 19.1463 36.8564 19.7204 36.9074 19.7505C37.1208 19.8746 37.191 20.1453 37.0658 20.3551C36.9821 20.4946 36.8327 20.5723 36.6802 20.5723C36.6028 20.5723 36.5249 20.5529 36.4538 20.5114C36.142 20.3317 35.1928 19.9346 34.5424 20.242C34.4292 20.299 33.6679 20.7035 32.8014 21.5961C34.576 21.4684 35.8101 21.9887 35.8723 22.0152C36.0982 22.1137 36.2011 22.3742 36.1022 22.5972C36.0284 22.7624 35.8643 22.8613 35.692 22.8613C35.6325 22.8613 35.5717 22.8499 35.5136 22.8242C35.48 22.8101 33.9667 22.1909 31.9609 22.603C31.5592 23.1608 31.1728 23.8294 30.8525 24.6261C30.8516 24.6844 30.8395 24.7436 30.8136 24.8001C30.7966 24.8377 30.7737 24.8703 30.7487 24.9004C30.4942 25.5889 30.2888 26.3631 30.1654 27.2375C31.1768 26.6113 32.4525 26.5839 32.5255 26.583H32.5308C32.7751 26.583 32.9741 26.7764 32.9777 27.0184C32.9813 27.2622 32.7836 27.4623 32.5371 27.4663C32.5183 27.4667 30.6776 27.5091 30.0513 28.5633C30.0075 29.6404 30.0831 30.843 30.3157 32.1812C30.3179 32.1913 30.3193 32.2015 30.3206 32.2121C30.6337 33.9958 31.2224 36.0145 32.198 38.3062L32.4109 38.7116C32.7393 38.5482 33.022 38.3221 33.2237 38.0438C33.5605 37.5792 33.6402 37.0157 33.4469 36.4571C32.6382 34.1142 32.6632 32.3264 33.5212 31.1429C34.6332 29.6082 36.9495 29.379 38.2306 29.379C38.8904 29.379 39.3435 29.439 39.348 29.4399L39.8078 29.5018L39.8539 29.046C39.8602 28.9859 39.9921 27.563 39.1512 26.5962C39.1024 26.5402 39.051 26.4872 38.9982 26.4364C39.2357 26.3838 39.4706 26.3092 39.7014 26.2129C41.2956 25.5491 42.3486 24.0644 42.3831 22.4312Z" fill="#28B446"/>
<path d="M6.99488 67.05L4.38488 74H3.06488L0.444883 67.05H1.66488L3.72488 72.83L5.79488 67.05H6.99488ZM12.9982 71.11C12.9982 71.3167 12.9849 71.5033 12.9582 71.67H8.74824C8.78158 72.11 8.94491 72.4633 9.23824 72.73C9.53158 72.9967 9.89158 73.13 10.3182 73.13C10.9316 73.13 11.3649 72.8733 11.6182 72.36H12.8482C12.6816 72.8667 12.3782 73.2833 11.9382 73.61C11.5049 73.93 10.9649 74.09 10.3182 74.09C9.79158 74.09 9.31824 73.9733 8.89824 73.74C8.48491 73.5 8.15824 73.1667 7.91824 72.74C7.68491 72.3067 7.56824 71.8067 7.56824 71.24C7.56824 70.6733 7.68158 70.1767 7.90824 69.75C8.14158 69.3167 8.46491 68.9833 8.87824 68.75C9.29824 68.5167 9.77824 68.4 10.3182 68.4C10.8382 68.4 11.3016 68.5133 11.7082 68.74C12.1149 68.9667 12.4316 69.2867 12.6582 69.7C12.8849 70.1067 12.9982 70.5767 12.9982 71.11ZM11.8082 70.75C11.8016 70.33 11.6516 69.9933 11.3582 69.74C11.0649 69.4867 10.7016 69.36 10.2682 69.36C9.87491 69.36 9.53824 69.4867 9.25824 69.74C8.97824 69.9867 8.81158 70.3233 8.75824 70.75H11.8082ZM16.3401 68.4C16.7668 68.4 17.1435 68.4867 17.4701 68.66C17.8035 68.8267 18.0635 69.0367 18.2501 69.29V68.49H19.4001V74.09C19.4001 74.5967 19.2935 75.0467 19.0801 75.44C18.8668 75.84 18.5568 76.1533 18.1501 76.38C17.7501 76.6067 17.2701 76.72 16.7101 76.72C15.9635 76.72 15.3435 76.5433 14.8501 76.19C14.3568 75.8433 14.0768 75.37 14.0101 74.77H15.1401C15.2268 75.0567 15.4101 75.2867 15.6901 75.46C15.9768 75.64 16.3168 75.73 16.7101 75.73C17.1701 75.73 17.5401 75.59 17.8201 75.31C18.1068 75.03 18.2501 74.6233 18.2501 74.09V73.17C18.0568 73.43 17.7935 73.65 17.4601 73.83C17.1335 74.0033 16.7601 74.09 16.3401 74.09C15.8601 74.09 15.4201 73.97 15.0201 73.73C14.6268 73.4833 14.3135 73.1433 14.0801 72.71C13.8535 72.27 13.7401 71.7733 13.7401 71.22C13.7401 70.6667 13.8535 70.1767 14.0801 69.75C14.3135 69.3233 14.6268 68.9933 15.0201 68.76C15.4201 68.52 15.8601 68.4 16.3401 68.4ZM18.2501 71.24C18.2501 70.86 18.1701 70.53 18.0101 70.25C17.8568 69.97 17.6535 69.7567 17.4001 69.61C17.1468 69.4633 16.8735 69.39 16.5801 69.39C16.2868 69.39 16.0135 69.4633 15.7601 69.61C15.5068 69.75 15.3001 69.96 15.1401 70.24C14.9868 70.5133 14.9101 70.84 14.9101 71.22C14.9101 71.6 14.9868 71.9333 15.1401 72.22C15.3001 72.5067 15.5068 72.7267 15.7601 72.88C16.0201 73.0267 16.2935 73.1 16.5801 73.1C16.8735 73.1 17.1468 73.0267 17.4001 72.88C17.6535 72.7333 17.8568 72.52 18.0101 72.24C18.1701 71.9533 18.2501 71.62 18.2501 71.24ZM25.9475 71.11C25.9475 71.3167 25.9341 71.5033 25.9075 71.67H21.6975C21.7308 72.11 21.8941 72.4633 22.1875 72.73C22.4808 72.9967 22.8408 73.13 23.2675 73.13C23.8808 73.13 24.3141 72.8733 24.5675 72.36H25.7975C25.6308 72.8667 25.3275 73.2833 24.8875 73.61C24.4541 73.93 23.9141 74.09 23.2675 74.09C22.7408 74.09 22.2675 73.9733 21.8475 73.74C21.4341 73.5 21.1075 73.1667 20.8675 72.74C20.6341 72.3067 20.5175 71.8067 20.5175 71.24C20.5175 70.6733 20.6308 70.1767 20.8575 69.75C21.0908 69.3167 21.4141 68.9833 21.8275 68.75C22.2475 68.5167 22.7275 68.4 23.2675 68.4C23.7875 68.4 24.2508 68.5133 24.6575 68.74C25.0641 68.9667 25.3808 69.2867 25.6075 69.7C25.8341 70.1067 25.9475 70.5767 25.9475 71.11ZM24.7575 70.75C24.7508 70.33 24.6008 69.9933 24.3075 69.74C24.0141 69.4867 23.6508 69.36 23.2175 69.36C22.8241 69.36 22.4875 69.4867 22.2075 69.74C21.9275 69.9867 21.7608 70.3233 21.7075 70.75H24.7575ZM28.3993 69.42V72.47C28.3993 72.6767 28.446 72.8267 28.5393 72.92C28.6393 73.0067 28.806 73.05 29.0393 73.05H29.7393V74H28.8393C28.326 74 27.9327 73.88 27.6593 73.64C27.386 73.4 27.2493 73.01 27.2493 72.47V69.42H26.5993V68.49H27.2493V67.12H28.3993V68.49H29.7393V69.42H28.3993ZM30.41 71.22C30.41 70.6667 30.5234 70.1767 30.75 69.75C30.9834 69.3233 31.2967 68.9933 31.69 68.76C32.09 68.52 32.53 68.4 33.01 68.4C33.4434 68.4 33.82 68.4867 34.14 68.66C34.4667 68.8267 34.7267 69.0367 34.92 69.29V68.49H36.07V74H34.92V73.18C34.7267 73.44 34.4634 73.6567 34.13 73.83C33.7967 74.0033 33.4167 74.09 32.99 74.09C32.5167 74.09 32.0834 73.97 31.69 73.73C31.2967 73.4833 30.9834 73.1433 30.75 72.71C30.5234 72.27 30.41 71.7733 30.41 71.22ZM34.92 71.24C34.92 70.86 34.84 70.53 34.68 70.25C34.5267 69.97 34.3234 69.7567 34.07 69.61C33.8167 69.4633 33.5434 69.39 33.25 69.39C32.9567 69.39 32.6834 69.4633 32.43 69.61C32.1767 69.75 31.97 69.96 31.81 70.24C31.6567 70.5133 31.58 70.84 31.58 71.22C31.58 71.6 31.6567 71.9333 31.81 72.22C31.97 72.5067 32.1767 72.7267 32.43 72.88C32.69 73.0267 32.9634 73.1 33.25 73.1C33.5434 73.1 33.8167 73.0267 34.07 72.88C34.3234 72.7333 34.5267 72.52 34.68 72.24C34.84 71.9533 34.92 71.62 34.92 71.24ZM38.7074 69.31C38.9007 69.0433 39.164 68.8267 39.4974 68.66C39.8374 68.4867 40.214 68.4 40.6274 68.4C41.114 68.4 41.554 68.5167 41.9474 68.75C42.3407 68.9833 42.6507 69.3167 42.8774 69.75C43.104 70.1767 43.2174 70.6667 43.2174 71.22C43.2174 71.7733 43.104 72.27 42.8774 72.71C42.6507 73.1433 42.3374 73.4833 41.9374 73.73C41.544 73.97 41.1074 74.09 40.6274 74.09C40.2007 74.09 39.8207 74.0067 39.4874 73.84C39.1607 73.6733 38.9007 73.46 38.7074 73.2V74H37.5674V66.6H38.7074V69.31ZM42.0574 71.22C42.0574 70.84 41.9774 70.5133 41.8174 70.24C41.664 69.96 41.4574 69.75 41.1974 69.61C40.944 69.4633 40.6707 69.39 40.3774 69.39C40.0907 69.39 39.8174 69.4633 39.5574 69.61C39.304 69.7567 39.0974 69.97 38.9374 70.25C38.784 70.53 38.7074 70.86 38.7074 71.24C38.7074 71.62 38.784 71.9533 38.9374 72.24C39.0974 72.52 39.304 72.7333 39.5574 72.88C39.8174 73.0267 40.0907 73.1 40.3774 73.1C40.6707 73.1 40.944 73.0267 41.1974 72.88C41.4574 72.7267 41.664 72.5067 41.8174 72.22C41.9774 71.9333 42.0574 71.6 42.0574 71.22ZM45.4847 66.6V74H44.3447V66.6H45.4847ZM52.0314 71.11C52.0314 71.3167 52.0181 71.5033 51.9914 71.67H47.7814C47.8148 72.11 47.9781 72.4633 48.2714 72.73C48.5648 72.9967 48.9248 73.13 49.3514 73.13C49.9648 73.13 50.3981 72.8733 50.6514 72.36H51.8814C51.7148 72.8667 51.4114 73.2833 50.9714 73.61C50.5381 73.93 49.9981 74.09 49.3514 74.09C48.8248 74.09 48.3514 73.9733 47.9314 73.74C47.5181 73.5 47.1914 73.1667 46.9514 72.74C46.7181 72.3067 46.6014 71.8067 46.6014 71.24C46.6014 70.6733 46.7148 70.1767 46.9414 69.75C47.1748 69.3167 47.4981 68.9833 47.9114 68.75C48.3314 68.5167 48.8114 68.4 49.3514 68.4C49.8714 68.4 50.3348 68.5133 50.7414 68.74C51.1481 68.9667 51.4648 69.2867 51.6914 69.7C51.9181 70.1067 52.0314 70.5767 52.0314 71.11ZM50.8414 70.75C50.8348 70.33 50.6848 69.9933 50.3914 69.74C50.0981 69.4867 49.7348 69.36 49.3014 69.36C48.9081 69.36 48.5714 69.4867 48.2914 69.74C48.0114 69.9867 47.8448 70.3233 47.7914 70.75H50.8414ZM55.1533 74.09C54.72 74.09 54.33 74.0133 53.9833 73.86C53.6433 73.7 53.3733 73.4867 53.1733 73.22C52.9733 72.9467 52.8667 72.6433 52.8533 72.31H54.0333C54.0533 72.5433 54.1633 72.74 54.3633 72.9C54.57 73.0533 54.8267 73.13 55.1333 73.13C55.4533 73.13 55.7 73.07 55.8733 72.95C56.0533 72.8233 56.1433 72.6633 56.1433 72.47C56.1433 72.2633 56.0433 72.11 55.8433 72.01C55.65 71.91 55.34 71.8 54.9133 71.68C54.5 71.5667 54.1633 71.4567 53.9033 71.35C53.6433 71.2433 53.4167 71.08 53.2233 70.86C53.0367 70.64 52.9433 70.35 52.9433 69.99C52.9433 69.6967 53.03 69.43 53.2033 69.19C53.3767 68.9433 53.6233 68.75 53.9433 68.61C54.27 68.47 54.6433 68.4 55.0633 68.4C55.69 68.4 56.1933 68.56 56.5733 68.88C56.96 69.1933 57.1667 69.6233 57.1933 70.17H56.0533C56.0333 69.9233 55.9333 69.7267 55.7533 69.58C55.5733 69.4333 55.33 69.36 55.0233 69.36C54.7233 69.36 54.4933 69.4167 54.3333 69.53C54.1733 69.6433 54.0933 69.7933 54.0933 69.98C54.0933 70.1267 54.1467 70.25 54.2533 70.35C54.36 70.45 54.49 70.53 54.6433 70.59C54.7967 70.6433 55.0233 70.7133 55.3233 70.8C55.7233 70.9067 56.05 71.0167 56.3033 71.13C56.5633 71.2367 56.7867 71.3967 56.9733 71.61C57.16 71.8233 57.2567 72.1067 57.2633 72.46C57.2633 72.7733 57.1767 73.0533 57.0033 73.3C56.83 73.5467 56.5833 73.74 56.2633 73.88C55.95 74.02 55.58 74.09 55.1533 74.09Z" fill="#868889"/>
</svg>
